PathFileType	4	(X/Y/Z)	C:/Users/opensim2020/Desktop/walking_exp_matlab/subject01_walking07_straight_01.trc																																																																																																																															
DataRate	CameraRate	NumFrames	NumMarkers	Units	OrigDataRate	OrigDataStartFrame	OrigNumFrames																																																																																																																											
100	100	7	43	mm	100	831	282																																																																																																																											
Frame#	Time	LFHD			RFHD			LBHD			RBHD			C7			T10			CLAV			STRN			RBAK			LSHO			LUPA			LELB			LFRM			LWRA			LWRB			LFIN			RSHO			RUPA			RELB			RFRM			RWRA			RWRB			RFIN			LASI			RASI			LPSI			RPSI			LTHI			LKNE			LTIB			LANK			LHEE			LTOE			RTHI			RKNE			RTIB			RANK			RHEE			RTOE			*39			*40			*41			*42		
		X1	Y1	Z1	X2	Y2	Z2	X3	Y3	Z3	X4	Y4	Z4	X5	Y5	Z5	X6	Y6	Z6	X7	Y7	Z7	X8	Y8	Z8	X9	Y9	Z9	X10	Y10	Z10	X11	Y11	Z11	X12	Y12	Z12	X13	Y13	Z13	X14	Y14	Z14	X15	Y15	Z15	X16	Y16	Z16	X17	Y17	Z17	X18	Y18	Z18	X19	Y19	Z19	X20	Y20	Z20	X21	Y21	Z21	X22	Y22	Z22	X23	Y23	Z23	X24	Y24	Z24	X25	Y25	Z25	X26	Y26	Z26	X27	Y27	Z27	X28	Y28	Z28	X29	Y29	Z29	X30	Y30	Z30	X31	Y31	Z31	X32	Y32	Z32	X33	Y33	Z33	X34	Y34	Z34	X35	Y35	Z35	X36	Y36	Z36	X37	Y37	Z37	X38	Y38	Z38	X39	Y39	Z39	X40	Y40	Z40	X41	Y41	Z41	X42	Y42	Z42	X43	Y43	Z43
																																																																																																																																		
177	1.76	15.43347	1668.27478	1436.82178	49.7447	1674.12402	1545.72229	-96.53449	1621.19019	1467.23425	-63.26028	1626.63281	1582.8291	-124.0895	1425.17798	1494.15479	-146.29236	1129.98511	1495.27185	21.75935	1362.84497	1492.95264	72.0945	1210.92798	1482.8158	-170.07574	1224.9906	1563.38354	-37.3632	1393.63831	1332.78271	-55.15473	1211.66699	1241.37659	-57.69312	1056.89343	1235.10437	17.47274	967.06549	1211.27649	133.91231	892.76544	1231.72656	86.33913	866.63019	1207.43445	158.39119	823.42175	1197.94836	-43.18715	1384.95605	1646.0824	-113.59428	1182.93188	1734.1521	-117.22733	1058.41809	1732.40039	-97.4492	939.02637	1760.86157	-21.36364	819.15088	1745.92712	-68.54932	821.10834	1780.42712	-36.52953	741.06488	1777.6853	25.24317	925.65283	1377.21509	44.8091	933.48492	1591.67883	-156.31209	936.74701	1445.10962	-141.19084	943.27954	1590.578	-0.86209	589.01599	1315.85681	-16.91186	456.35315	1322.32129	-170.76927	354.07745	1325.72424	-334.85141	216.50673	1386.92139	-367.64859	238.36845	1446.12573	-313.92078	67.7104	1385.83191	41.36156	602.45392	1646.46936	78.34276	449.34473	1614.04199	36.90622	277.0094	1624.3822	15.78379	73.79391	1575.80408	-38.56678	35.94254	1532.72473	155.51512	36.02488	1560.20081	33.45853	1707.87244	1526.55444	1973.01514	1024.04663	-3102.00757	2012.47705	1022.1543	-3140.8042	NaN	NaN	NaN
178	1.77	25.64956	1668.9729	1436.98914	60.00533	1674.69287	1545.79919	-86.63758	1622.10583	1467.4436	-52.98362	1627.28125	1583.01575	-114.00147	1425.89233	1494.60327	-136.62236	1130.72144	1496.54773	31.68858	1363.34155	1492.90613	81.74921	1211.35315	1482.85352	-160.10211	1225.95068	1564.60254	-28.11904	1393.98523	1332.85193	-47.9065	1211.71423	1242.55237	-51.11129	1056.98853	1236.5199	22.00057	965.69489	1212.70691	137.04994	889.17566	1232.98157	88.7151	863.8252	1208.92969	159.85556	819.20428	1199.32336	-32.47869	1385.83264	1646.27454	-101.95648	1183.68115	1735.28748	-105.22825	1059.03967	1733.64771	-84.17674	939.81067	1761.94006	-6.521	820.86426	1746.73767	-53.98314	822.23199	1781.25146	-20.95213	742.60516	1778.53198	34.53695	926.49109	1377.99768	54.15313	933.69397	1592.55432	-147.01115	936.71783	1445.79297	-132.28204	943.61115	1591.2832	14.64843	590.74414	1315.33801	2.13636	458.1983	1322.01746	-151.24992	356.06976	1325.10046	-316.69443	221.31638	1387.40283	-349.29941	242.01433	1447.47693	-295.83743	72.27455	1381.96265	47.90573	602.17297	1646.43604	82.54073	448.73044	1614.27002	39.67729	276.67273	1624.46606	16.01698	73.72255	1575.67395	-38.60716	36.05503	1532.65735	155.55551	35.99182	1560.03186	43.76489	1708.47144	1526.65234	1973.09009	1023.50452	-3101.98804	2012.51819	1022.1333	-3140.68091	NaN	NaN	NaN
179	1.78	35.76727	1669.50342	1436.90881	70.27918	1675.22522	1545.66589	-76.49581	1622.797	1467.5415	-42.70086	1627.99695	1583.08167	-104.12325	1426.7052	1495.07959	-127.08852	1131.51758	1497.72314	41.54066	1363.78235	1492.7832	91.29875	1211.75732	1482.89502	-150.28751	1226.94287	1565.74817	-18.91006	1394.36987	1332.92322	-39.88432	1211.80554	1243.25037	-44.64999	1057.30542	1237.9115	26.47274	964.47363	1214.16418	139.86	885.56952	1234.12927	90.9888	861.11444	1210.33887	161.16753	815.06177	1200.87463	-21.86607	1386.6792	1646.41553	-90.27238	1184.41309	1736.34912	-93.01102	1059.81226	1734.9729	-70.80489	940.59808	1762.98059	7.72012	822.54218	1747.25	-39.20506	823.37872	1782.06445	-5.17456	744.2558	1779.39368	44.1004	927.39624	1378.28381	63.3624	933.98602	1593.38074	-137.74098	936.79413	1446.30615	-122.90532	943.50006	1591.60474	30.06024	592.59131	1314.74536	21.06094	460.19525	1321.68298	-131.73074	357.80225	1324.74292	-298.06406	225.06357	1387.99133	-330.67331	244.37704	1449.08582	-276.07724	76.73135	1378.47705	54.15444	602.17902	1646.53882	86.35141	448.00519	1614.48608	42.25941	276.47357	1624.55396	16.28877	73.70267	1575.64502	-39.05118	36.67342	1532.34619	155.63297	35.90199	1559.92297	54.0569	1709.02979	1526.56323	1973.14465	1023.44794	-3101.98047	2012.58984	1022.23407	-3140.62207	NaN	NaN	NaN
180	1.79	45.88573	1670.05371	1436.66553	80.65819	1675.79102	1545.40039	-66.35291	1623.4939	1467.49414	-32.39931	1628.70923	1582.97424	-94.2653	1427.49866	1495.45544	-117.72127	1132.38599	1498.69226	51.23329	1364.23096	1492.57727	100.7104	1212.1084	1482.8999	-140.47597	1227.91077	1566.82532	-9.8455	1394.80713	1332.94556	-32.81308	1211.92896	1244.54626	-38.24263	1057.58167	1239.29004	30.75804	963.44232	1215.5332	142.46112	882.08618	1235.19128	92.93366	858.64587	1211.62329	162.13077	810.67761	1202.41125	-11.29416	1387.56616	1646.51074	-78.53358	1185.17651	1737.45947	-80.82954	1060.50757	1736.20776	-57.30878	941.48962	1764.04797	22.20537	824.28876	1747.73718	-24.55944	824.42664	1782.60303	10.66706	746.0058	1780.1593	53.08801	928.26135	1378.85083	72.53423	934.43579	1594.22949	-128.47543	937.08881	1446.59131	-114.03535	943.77704	1591.87268	45.46242	594.54712	1314.10571	40.094	462.4024	1321.27246	-112.14101	359.52249	1324.86206	-278.78125	227.92816	1388.55725	-312.01627	245.29857	1450.44702	-254.59151	80.75764	1374.93835	60.07204	602.31561	1646.75513	90.02374	447.3902	1614.72742	44.23	275.59799	1623.95349	16.41356	73.77854	1575.61768	-38.86142	36.3465	1532.44751	155.65382	35.85605	1559.86475	64.38958	1709.59412	1526.29016	1973.12537	1023.66382	-3102.03613	2012.52686	1022.00562	-3140.55493	NaN	NaN	NaN
181	1.8	56.0301	1670.53503	1436.22168	90.99931	1676.27356	1544.93835	-56.27489	1624.23328	1467.40259	-22.11613	1629.47913	1582.75708	-84.59443	1428.31519	1495.90259	-108.43255	1133.1748	1499.45044	60.89051	1364.71338	1492.33606	110.01054	1212.47583	1482.82605	-130.73264	1228.93909	1567.81873	-0.91769	1395.26941	1332.95728	-25.4203	1212.12134	1245.42737	-31.81347	1057.84668	1240.67419	35.0273	962.55994	1216.86743	144.81224	878.68225	1236.22961	94.69771	856.30225	1212.82581	162.92265	806.86761	1203.59875	-0.87281	1388.43518	1646.49976	-66.71136	1185.91443	1738.49963	-68.53789	1061.2218	1737.45544	-43.64044	942.41833	1765.08875	36.97587	826.1203	1748.22693	-9.65424	825.68109	1783.30591	26.5384	747.76343	1780.81506	62.82042	929.42206	1379.37903	81.64408	934.99585	1594.97729	-119.256	937.61346	1446.72876	-105.2322	944.36151	1592.02209	60.7137	596.59082	1313.51904	58.8489	464.61737	1320.82019	-92.59576	361.06427	1325.27686	-259.03644	229.84045	1389.32898	-292.97009	245.08485	1451.81714	-231.24872	84.30473	1371.58826	65.70406	602.4118	1646.98108	93.59451	446.82858	1614.85925	47.06364	275.77048	1624.34033	16.58053	73.86415	1575.59448	-39.15599	36.90562	1532.17053	155.69092	35.78919	1559.76794	74.77604	1710.12976	1525.82739	1973.19324	1023.34625	-3101.90698	2012.44592	1022.0025	-3140.79443	NaN	NaN	NaN
182	1.81	66.10104	1670.90588	1435.67224	101.38345	1676.72339	1544.30273	-46.21441	1624.99438	1467.1803	-11.75029	1630.26514	1582.46863	-74.94085	1429.09656	1496.2135	-99.19051	1133.97864	1500.06458	70.39049	1365.19788	1492.08752	119.19067	1212.86157	1482.67139	-121.08192	1229.95703	1568.79163	7.90595	1395.74219	1332.84204	-18.0352	1212.41431	1246.1521	-25.82254	1058.61096	1242.16223	39.12292	961.85284	1218.08984	146.96042	875.42926	1237.19543	96.26339	854.08539	1213.91077	163.11108	802.84216	1204.72095	9.43463	1389.2981	1646.42737	-54.90126	1186.70203	1739.52783	-56.20741	1061.95215	1738.5957	-29.86693	943.40295	1766.05823	51.78126	828.01947	1748.63696	5.46532	827.08374	1784.07532	42.55967	749.59454	1781.34277	72.11478	930.4541	1379.75525	90.66633	935.58392	1595.60071	-109.97338	938.29596	1446.69885	-96.39992	945.01117	1592.04175	75.95846	598.80371	1312.99963	77.4255	466.9635	1320.4303	-73.22309	362.66071	1325.92712	-238.95769	230.46193	1389.80872	-273.84982	243.68399	1452.71619	-206.46661	87.04449	1368.4043	71.16926	602.27533	1646.99316	97.03512	446.21149	1614.83496	49.36467	275.8165	1624.39294	16.69588	73.97662	1575.50537	-38.99789	36.77437	1531.9281	155.77219	35.736	1559.69446	85.25618	1710.60681	1525.21045	1973.1134	1023.51489	-3102.01685	2012.57117	1022.12732	-3140.69531	NaN	NaN	NaN
183	1.82	76.34904	1671.26038	1435.01111	111.79708	1677.1499	1543.57178	-36.29744	1625.91943	1466.94556	-1.34642	1631.10925	1582.06067	-65.43493	1429.83179	1496.4884	-89.99893	1134.70667	1500.55493	79.85131	1365.78601	1491.77661	128.35818	1213.29358	1482.46936	-111.47681	1230.99561	1569.6189	16.67931	1396.25537	1332.77881	-10.71054	1212.69653	1246.76843	-19.8885	1058.99939	1243.48499	43.09789	961.18988	1219.27563	148.91052	872.17371	1238.21631	97.26103	852.07056	1214.81738	163.3011	798.9837	1206.17761	19.67318	1390.22192	1646.32141	-43.04319	1187.54089	1740.54114	-43.85954	1062.70911	1739.6969	-16.06604	944.39539	1766.89832	66.76558	829.99902	1749.0249	20.61362	828.48029	1784.67749	58.61214	751.53204	1781.84717	80.98654	931.41022	1380.44849	99.62949	936.12213	1596.12463	-100.73975	939.14148	1446.57471	-87.14656	945.42389	1591.77588	90.88362	601.11127	1312.60449	95.47464	469.22989	1319.99402	-54.17475	364.44461	1326.56323	-218.2253	230.2119	1390.1344	-254.5118	241.52931	1453.42078	-180.3165	89.03923	1365.86658	76.55689	602.38379	1647.13782	100.30827	445.68301	1614.85059	51.23646	275.62762	1624.35925	16.85641	74.07166	1575.4502	-39.02421	37.51437	1532.2666	155.77557	35.80328	1559.77478	95.78008	1711.08386	1524.48779	1973.0896	1023.80524	-3101.92749	2012.54553	1022.07831	-3140.63843	NaN	NaN	NaN
